<svg width="78" height="89" viewBox="0 0 78 89" fill="none" xmlns="http://www.w3.org/2000/svg">
<ellipse cx="37.4805" cy="54.3367" rx="37.4805" ry="34.6632" fill="#46A358" fill-opacity="0.13"/>
<g clip-path="url(#clip0_58257_301)">
<path d="M28.4946 43.4293C41.2309 44.9878 54.0852 45.2328 66.8805 44.16C67.7481 44.0882 67.7572 42.8211 66.8805 42.8929C54.0852 43.9657 41.2309 43.7207 28.4946 42.1622C27.6316 42.0566 27.6361 43.3279 28.4946 43.4293Z" fill="#727272"/>
<path d="M31.4334 86.2182C36.9385 86.8686 42.48 87.1854 48.0305 87.1136C52.9133 87.0502 58.6774 87.2488 63.2559 85.4622C64.0508 85.1496 63.701 83.9248 62.8925 84.2416C58.1959 86.0746 52.1775 85.8254 47.1539 85.855C41.894 85.8888 36.6478 85.5678 31.4289 84.9511C30.5659 84.8498 30.5704 86.1168 31.4334 86.2182Z" fill="#727272"/>
<path d="M27.9632 42.4537C21.6087 47.9359 18.6472 56.1085 19.3467 64.0784C19.7055 68.1964 20.9592 72.2003 22.8442 75.934C24.5611 79.3382 27.0911 84.2164 30.8883 85.9861C31.6696 86.3493 32.36 85.2596 31.5742 84.8922C28.0404 83.245 25.6376 78.5019 24.0206 75.2962C22.1401 71.5583 20.9092 67.4995 20.6548 63.3731C20.2006 55.9353 23.0077 48.4554 28.9307 43.3491C29.5757 42.7958 28.6082 41.9004 27.9632 42.4537Z" fill="#727272"/>
<path d="M66.3991 43.9867C73.1033 47.8936 73.7347 56.3196 73.5711 62.9548C73.3895 70.3545 72.4038 82.0792 62.8925 84.2417C62.0431 84.4359 62.4019 85.6566 63.2559 85.4623C73.1851 83.2069 74.6113 71.5709 74.9111 63.7404C75.1882 56.4125 74.4887 47.2051 67.0849 42.8928C66.34 42.462 65.6587 43.5559 66.3991 43.9867Z" fill="#727272"/>
<path d="M33.0004 43.4376C27.9995 48.4426 25.792 56.801 26.6368 63.5038C27.1274 67.4022 28.4537 71.271 29.4393 75.0764C30.4295 78.8903 31.4515 82.6747 33.6954 86.0408C34.1587 86.7335 35.3351 86.0958 34.8718 85.4031C32.7642 82.2438 31.7831 78.7129 30.852 75.1356C29.9526 71.6891 28.9034 68.2385 28.2084 64.754C26.8912 58.1188 28.9533 49.3506 33.9634 44.333C34.5584 43.7333 33.5954 42.8379 33.0004 43.4376Z" fill="#727272"/>
<path d="M39.7501 43.9657C36.0255 50.0646 34.0678 56.9912 34.1678 64.0108C34.2177 67.3812 34.7355 70.7559 35.7257 73.9996C36.9567 78.0246 38.828 81.8428 39.6456 85.9776C39.8046 86.7801 41.1173 86.438 40.9583 85.6397C40.2452 82.0201 38.7326 78.6497 37.529 75.1611C36.3616 71.7737 35.6621 68.2808 35.544 64.7204C35.3079 57.6797 37.1883 50.7234 40.9265 44.6035C41.3626 43.8939 40.1861 43.2562 39.7501 43.9657Z" fill="#727272"/>
<path d="M43.7654 45.1778C45.0599 52.2143 43.4883 59.2634 43.62 66.3295C43.6791 69.5563 44.4558 72.5592 44.91 75.7354C45.3824 79.034 44.5739 82.4255 44.1333 85.6988C44.0243 86.5055 45.387 86.497 45.496 85.6988C45.9411 82.396 46.7451 78.9791 46.2727 75.6509C45.7912 72.2467 44.9782 69.0199 44.9736 65.5566C44.9645 58.6257 46.3453 51.7455 45.0781 44.8441C44.9282 44.0417 43.6155 44.3795 43.7654 45.1778Z" fill="#727272"/>
<path d="M48.8754 44.5906C51.2691 50.9471 51.5598 57.6541 51.8005 64.3231C52.064 71.5666 51.6733 78.696 50.2198 85.8254C50.0563 86.6236 51.369 86.9657 51.5325 86.1633C53.0087 78.924 53.4312 71.6764 53.1632 64.3231C52.9179 57.5443 52.6181 50.7105 50.1881 44.2527C49.9019 43.4925 48.5847 43.8219 48.8754 44.5906Z" fill="#727272"/>
<path d="M54.6075 44.6204C55.1117 46.0522 56.2018 47.0067 57.0376 48.2653C57.9915 49.7013 58.5138 51.3274 58.7954 52.9831C59.4086 56.5984 59.1179 60.3828 59.1088 64.0277C59.0998 67.9937 59.4268 72.1877 58.323 76.0607C57.351 79.4607 55.1208 82.3918 54.3759 85.8636C54.2033 86.6619 55.516 86.9998 55.6886 86.2015C56.488 82.4847 58.9589 79.3382 59.831 75.6383C60.7258 71.854 60.4624 67.8754 60.4715 64.0277C60.4806 60.4715 60.7122 56.835 60.208 53.2998C59.9855 51.7371 59.6039 50.1913 58.8772 48.7637C58.0687 47.1714 56.5107 45.9593 55.9248 44.2867C55.6477 43.5138 54.3305 43.8432 54.6075 44.6204Z" fill="#727272"/>
<path d="M61.2346 44.4216C63.9418 46.7868 65.2454 50.5627 66.2219 53.8233C67.2394 57.2191 66.8987 60.8429 66.6716 64.3189C66.2128 71.3723 64.932 78.4172 61.2937 84.7019C60.8758 85.4199 62.0522 86.0619 62.4701 85.3396C66.3491 78.6368 67.6436 71.1019 68.0751 63.584C68.2932 59.7997 68.4703 56.104 67.194 52.4591C66.0857 49.2956 64.8638 45.8576 62.1976 43.522C61.5617 42.9687 60.5942 43.8641 61.2346 44.4216Z" fill="#727272"/>
<path d="M32.8914 47.5895C32.7506 47.9231 32.5962 48.2526 32.4281 48.5778C32.2147 48.9875 32.4645 49.5492 33.0186 49.5323C33.4138 49.5196 33.7272 49.3549 34.0088 49.1057C34.0997 49.0255 34.1905 48.941 34.2768 48.8608C34.3904 48.7552 34.2405 48.9241 34.3268 48.827C34.3086 48.8523 34.2132 48.8439 34.2995 48.8523C34.0815 48.5862 33.8635 48.3159 33.6409 48.0498C33.5819 48.3328 33.5183 48.6158 33.4592 48.903C33.3865 49.2367 33.5637 49.5872 33.9361 49.6844C34.2723 49.7688 34.7038 49.5788 34.7764 49.2409C34.8355 48.9579 34.8991 48.6749 34.9581 48.3877C35.049 47.9569 34.7628 47.6275 34.2995 47.5852C33.9225 47.5515 33.5819 47.7373 33.3139 47.9654C33.2185 48.0456 33.1367 48.1301 33.0413 48.2103C33.0095 48.2357 32.9823 48.261 32.9505 48.2864C32.9641 48.2737 32.9777 48.2652 32.9914 48.2526C32.9232 48.2864 32.9232 48.2906 33.0005 48.261C32.9232 48.2779 32.9278 48.2821 33.0141 48.261C33.2094 48.5778 33.4047 48.8946 33.6046 49.2155C33.8226 48.7932 34.0224 48.3624 34.2041 47.9274C34.3359 47.6064 34.0588 47.2305 33.7272 47.146C33.3457 47.0488 33.0277 47.2685 32.8914 47.5895Z" fill="#727272"/>
<path d="M29.5166 55.1708C29.453 55.5256 29.3894 55.8803 29.3259 56.2309C29.2759 56.5139 29.3576 56.7926 29.6393 56.9447C29.8891 57.0798 30.2661 57.0545 30.4659 56.8475C30.5977 56.7082 30.7294 56.5688 30.8611 56.4294C30.9474 56.3365 31.07 56.1633 31.1745 56.1126C31.061 56.1422 30.9474 56.1718 30.8293 56.1971C30.852 56.1929 30.8793 56.1929 30.902 56.1887C30.7884 56.1591 30.6749 56.1295 30.5568 56.1042C30.575 56.1169 30.5931 56.1295 30.6113 56.1422C30.4977 55.9606 30.3842 55.779 30.2752 55.5931C30.3115 55.9564 30.2025 56.3618 30.1571 56.7293C30.0935 57.2572 30.7703 57.4515 31.1836 57.2783C31.7196 57.046 32.0784 56.6195 32.2692 56.1084C31.8876 56.2013 31.5106 56.2942 31.1291 56.3872C31.1155 56.3069 31.1018 56.2267 31.0882 56.1464C30.8656 56.9362 32.1829 57.2741 32.4009 56.4843C32.5008 56.1253 32.41 55.7325 32.092 55.4918C31.6832 55.1834 31.1336 55.2933 30.952 55.7705C30.8702 55.9817 30.7021 56.0915 30.4932 56.1844C30.8339 56.366 31.1745 56.5477 31.5197 56.7335C31.5879 56.1675 31.9149 55.1623 31.0791 54.9469C30.3751 54.7653 29.88 55.5425 29.4985 55.9521C29.88 56.1591 30.257 56.3618 30.6385 56.5688C30.7021 56.214 30.7657 55.8592 30.8293 55.5087C30.8884 55.1708 30.7339 54.8244 30.3524 54.7273C30.0299 54.6471 29.5757 54.8329 29.5166 55.1708Z" fill="#727272"/>
<path d="M28.9307 62.8027C28.9761 63.3011 29.0261 63.7995 29.0715 64.2936C29.1396 64.999 30.1616 65.1637 30.4114 64.4626C30.5477 64.074 30.7385 63.7234 30.9792 63.3771C30.5659 63.3264 30.148 63.2757 29.7346 63.2251C29.8936 63.5925 30.0026 63.9684 30.0617 64.3654C30.1298 64.8131 30.7157 64.8891 31.061 64.7455C31.2336 64.6737 31.3744 64.5344 31.4652 64.3823C31.5061 64.3147 31.5379 64.2345 31.5651 64.1627C31.5788 64.1247 31.5878 64.0867 31.6015 64.0487C31.6242 63.9853 31.6151 63.9895 31.5833 64.0613C31.4834 64.1162 31.3834 64.1711 31.2835 64.226C31.3062 64.2176 31.3335 64.2134 31.3562 64.2049C31.2336 64.2049 31.1155 64.2049 30.9928 64.2049C30.9837 64.2007 30.9747 64.1965 30.9701 64.188C30.8883 64.112 30.8066 64.036 30.7248 63.96C30.7385 63.9769 30.7475 63.9938 30.7612 64.0106C30.7385 63.8459 30.7157 63.6854 30.693 63.5207C30.6885 63.5418 30.6885 63.5629 30.684 63.5798C30.634 63.9177 30.7703 64.2598 31.1609 64.3612C31.4788 64.4415 31.9512 64.2598 32.0012 63.9177C32.0421 63.6432 32.0194 63.394 31.8013 63.187C31.6196 63.0181 31.3426 62.9379 31.0882 62.9632C30.8248 62.9928 30.5931 63.1364 30.4523 63.3433C30.3933 63.432 30.3115 63.5545 30.307 63.6559C30.3024 63.8037 30.2343 63.6981 30.3796 63.639C30.7112 63.7657 31.0473 63.8924 31.3789 64.0191C31.3199 63.6263 31.2108 63.2504 31.0519 62.8787C30.8338 62.3803 30.1434 62.2367 29.8073 62.7267C29.5075 63.1617 29.2759 63.6263 29.1033 64.112C29.5484 64.1669 29.9935 64.226 30.4432 64.281C30.3978 63.7826 30.3478 63.2842 30.3024 62.79C30.2706 62.4479 30.0117 62.1565 29.6211 62.1565C29.2713 62.1692 28.8989 62.4606 28.9307 62.8027Z" fill="#727272"/>
<path d="M30.5704 71.7399C30.6158 72.4706 31.011 73.1083 31.6968 73.48C32.151 73.7208 32.7143 73.4124 32.7234 72.9309C32.7279 72.5593 32.8187 72.2172 32.9732 71.875C32.5916 71.968 32.2146 72.0609 31.8331 72.1538C32.0193 72.365 32.2192 72.5508 32.4417 72.724C32.8051 73.007 33.4683 72.9521 33.5818 72.4452C33.6091 72.3312 33.6409 72.2341 33.6818 72.1285C33.3002 72.2214 32.9232 72.3143 32.5417 72.4072C32.5826 72.3861 32.6053 72.4114 32.6007 72.479C32.7461 72.7958 33.2457 72.8634 33.5319 72.7071C33.8816 72.517 33.9225 72.158 33.7771 71.8413C33.7181 71.7146 33.6227 71.6005 33.5046 71.5118C33.0822 71.2035 32.5644 71.3175 32.3645 71.7906C32.3191 71.8962 32.2873 71.9975 32.2646 72.1073C32.6461 72.0144 33.0231 71.9215 33.4047 71.8286C33.1821 71.6554 32.9823 71.4654 32.796 71.2584C32.4327 70.8445 31.8331 71.1528 31.656 71.5372C31.4561 71.9806 31.3653 72.4495 31.3562 72.9309C31.6968 72.7493 32.0375 72.5677 32.3827 72.3819C32.1193 72.2425 31.9467 72.0229 31.9285 71.7357C31.8831 70.9332 30.5204 70.9247 30.5704 71.7399Z" fill="#727272"/>
<path d="M33.3775 80.4277C33.5364 80.8078 33.7272 81.1584 33.9861 81.492C34.3904 82.0073 35.1943 81.8173 35.2579 81.1711C35.2625 81.133 35.3351 80.6642 35.3079 80.6431C35.1126 80.7571 34.9218 80.8712 34.7265 80.9852C34.7719 81.0444 34.8128 81.0993 34.8627 81.1542C35.0353 81.3569 35.2488 81.5301 35.5259 81.6019C35.7394 81.6525 35.9892 81.6272 36.1754 81.5174C36.2981 81.4414 36.3844 81.3527 36.448 81.2302C36.4707 81.1795 36.4934 81.1288 36.5161 81.0781C36.6206 80.774 36.4207 80.7234 35.9211 80.9261C36.1936 81.6948 37.5108 81.3653 37.2338 80.5882C37.043 80.056 36.4888 79.7097 35.8847 79.9209C35.6395 80.0096 35.426 80.1785 35.3079 80.3981C35.2715 80.4657 35.1398 80.7571 35.1852 80.8416C35.4487 80.7022 35.7076 80.5586 35.971 80.4193C35.9347 80.377 35.8984 80.339 35.8666 80.2968C35.6485 79.8871 35.0172 79.6548 34.563 79.8068C33.9225 80.018 33.9498 80.6516 33.8998 81.1753C34.3222 81.0697 34.7446 80.9641 35.1716 80.8543C34.9854 80.6178 34.8173 80.3686 34.6992 80.094C34.3722 79.3423 33.055 79.6675 33.3775 80.4277Z" fill="#727272"/>
<path d="M40.6586 47.7627C40.168 48.1048 39.7592 48.5102 39.4912 49.0297C39.1415 49.7055 39.9545 50.2377 40.5632 49.7984C40.7085 49.6928 40.8539 49.5872 40.9992 49.4816C41.0628 49.4352 41.1264 49.3887 41.1945 49.3423C41.2263 49.3169 41.2581 49.2958 41.2899 49.2705C41.4035 49.1944 41.3444 49.2071 41.1128 49.3043C40.9992 49.2747 40.8857 49.2451 40.7676 49.2198C40.7812 49.2282 40.7948 49.2367 40.8085 49.2451C40.7267 49.1691 40.6449 49.0931 40.5632 49.0171C40.5496 48.9621 40.5314 48.9115 40.5178 48.8566C40.5223 48.7974 40.5223 48.789 40.5087 48.8397C40.4769 48.8608 40.4678 49.0044 40.4678 49.0255C40.436 49.2198 40.4542 49.4098 40.5632 49.5872C40.6631 49.7477 40.8403 49.8913 41.0356 49.9378C41.1173 49.9589 41.2218 49.9674 41.3081 49.9674C41.3899 49.9674 41.4625 49.9547 41.5352 49.9293C41.6306 49.904 41.5988 49.8956 41.4353 49.904C41.3353 49.8491 41.2354 49.7942 41.1355 49.7393C41.1491 49.752 41.1627 49.7646 41.1764 49.7773C41.1173 49.6844 41.0583 49.5915 40.9992 49.4985C41.0038 49.5112 41.0083 49.5281 41.0129 49.5408C41.0356 49.3761 41.0583 49.2156 41.081 49.0508C41.0719 49.0635 41.0674 49.0762 41.0583 49.0889C40.6449 49.8069 41.8214 50.4488 42.2347 49.7266C42.4118 49.4225 42.371 49.0804 42.0939 48.8397C41.9485 48.713 41.7532 48.6369 41.5534 48.6327C41.4398 48.6285 41.3081 48.6961 41.2082 48.6876C41.3217 48.7172 41.4353 48.7467 41.5534 48.7721C41.5352 48.7594 41.517 48.7467 41.5034 48.7383C41.5852 48.8143 41.6669 48.8903 41.7487 48.9664C41.7396 48.9495 41.7305 48.9326 41.7214 48.9157C41.7532 49.0213 41.785 49.1269 41.8123 49.2367C41.8032 49.1564 41.8168 49.1987 41.8486 49.0804C41.8849 48.9326 41.8895 48.7721 41.8532 48.62C41.7759 48.3159 41.5307 48.0963 41.2036 48.0414C40.863 47.9823 40.6313 48.147 40.3724 48.3328C40.1135 48.5187 39.8546 48.7087 39.5957 48.8946C39.9545 49.1522 40.3088 49.4056 40.6676 49.6633C40.8312 49.3507 41.0401 49.0635 41.3444 48.8523C41.6397 48.6496 41.7896 48.3033 41.5897 47.9865C41.4216 47.7204 40.9583 47.5599 40.6586 47.7627Z" fill="#727272"/>
<path d="M37.9923 54.8921C37.8788 55.3989 37.7697 55.9057 37.6562 56.4168C37.5154 57.063 38.2694 57.4347 38.7963 57.0334C38.9507 56.9152 39.087 56.7673 39.1869 56.6068C39.255 56.497 39.3368 56.2732 39.3731 56.2183C39.2914 56.2943 39.2096 56.3703 39.1279 56.4463C39.1506 56.4337 39.1687 56.421 39.1914 56.4041C39.0779 56.4337 38.9643 56.4632 38.8462 56.4886C38.8735 56.4844 38.9007 56.4844 38.928 56.4801C38.8144 56.4506 38.7009 56.421 38.5828 56.3957C38.4738 56.3492 38.4692 56.1845 38.501 56.3999C38.5101 56.4548 38.5237 56.5013 38.5419 56.5519C38.6055 56.742 38.7191 56.9109 38.8917 57.0292C39.0506 57.139 39.2369 57.1981 39.4367 57.1939C39.5594 57.1897 39.6729 57.1601 39.7819 57.1094C39.841 57.0883 39.8909 57.0588 39.9364 57.0208C40.0545 56.9447 40.0227 56.949 39.8455 57.025C39.732 56.9954 39.6184 56.9658 39.5003 56.9405C39.5185 56.949 39.523 56.9574 39.5366 56.9912C39.8273 57.7557 41.1446 57.4262 40.8493 56.6533C40.7222 56.3196 40.5359 56.0113 40.1862 55.8466C40.0045 55.7579 39.7774 55.7326 39.5775 55.7748C39.3777 55.817 39.2596 55.9395 39.087 56.0155C39.2005 55.986 39.3141 55.9564 39.4322 55.9311C39.4095 55.9311 39.3822 55.9311 39.3595 55.9311C39.4731 55.9606 39.5866 55.9902 39.7047 56.0155C39.8273 56.214 39.8637 56.2436 39.8137 56.1042C39.8046 56.0493 39.7956 55.9944 39.7865 55.9395C39.7547 55.8297 39.7047 55.7157 39.6411 55.6227C39.4731 55.3778 39.196 55.2173 38.8826 55.2215C38.5737 55.2257 38.2921 55.3905 38.1467 55.6396C38.0241 55.8508 38.0332 55.9775 37.8242 56.138C38.2058 56.345 38.5828 56.5477 38.9643 56.7547C39.0779 56.2478 39.1869 55.741 39.3005 55.2342C39.4821 54.4317 38.1695 54.0938 37.9923 54.8921Z" fill="#727272"/>
<path d="M37.4654 61.3667C37.3246 62.0467 37.2337 62.7309 37.211 63.4194C37.1929 63.9009 37.8015 64.205 38.2376 63.9685C38.4374 63.8586 38.5828 63.7108 38.6918 63.5208C38.7327 63.449 38.8508 63.2842 38.828 63.2209C38.8235 63.2124 38.7826 63.2673 38.8008 63.2589C38.6872 63.2885 38.5737 63.318 38.4556 63.3434C38.4465 63.3476 38.4329 63.3476 38.4238 63.3518C38.342 63.2758 38.2603 63.1998 38.1785 63.1237C38.2557 63.2167 38.2466 63.2082 38.2557 63.3053C38.3057 63.8249 38.9779 64.1712 39.4185 63.7531C39.4685 63.7024 39.5185 63.6559 39.573 63.6094C39.4776 63.6517 39.3776 63.6432 39.2823 63.5926C39.2232 63.4996 39.1642 63.4067 39.1051 63.3138C39.1142 63.3391 39.1233 63.3645 39.1369 63.3898C39.2641 63.7108 39.6002 63.9304 39.9772 63.8333C40.3088 63.7488 40.5813 63.3772 40.4541 63.0519C40.0999 62.1565 39.0688 62.2706 38.4556 62.8576C38.8417 63.0055 39.2323 63.1575 39.6184 63.3053C39.5639 62.6929 39.2368 62.0298 38.4556 62.0763C38.1376 62.0932 37.856 62.2663 37.688 62.5155C37.6289 62.6042 37.588 62.7056 37.5426 62.8027C37.4926 62.9083 37.4063 62.9463 37.5472 62.8703C37.8878 63.0519 38.2285 63.2335 38.5737 63.4194C38.5918 62.8408 38.66 62.2706 38.7781 61.7004C38.9461 60.9064 37.6335 60.5685 37.4654 61.3667Z" fill="#727272"/>
<path d="M38.1422 68.6017C38.2966 69.1677 38.4829 69.721 38.7009 70.2658C38.878 70.7093 39.4458 70.8951 39.841 70.5446C40.0136 70.3883 40.1317 70.2067 40.1907 69.9871C40.2134 69.8984 40.2316 69.7928 40.2361 69.7041C40.2498 69.4338 40.218 69.6576 40.2452 69.6449C40.1317 69.6745 40.0181 69.7041 39.9 69.7294C39.9318 69.7294 39.9591 69.7252 39.9909 69.7252C39.8773 69.6956 39.7638 69.6661 39.6457 69.6407C39.5548 69.6027 39.5821 69.5647 39.6547 69.683C39.6911 69.7421 39.7229 69.7928 39.7683 69.8477C39.9091 70.0166 40.0817 70.1307 40.3134 70.1602C40.5178 70.1856 40.7131 70.1391 40.8857 70.0293C40.9811 69.9659 41.0674 69.8941 41.1309 69.8012C41.1582 69.7505 41.1855 69.6999 41.2082 69.6492C41.299 69.4844 41.2218 69.5267 40.9765 69.7801C40.8539 69.7801 40.7358 69.7801 40.6131 69.7801C40.5586 69.7379 40.5087 69.6914 40.4542 69.6492C40.4224 69.5436 40.3906 69.438 40.3633 69.3282C40.3633 69.3535 40.3633 69.3789 40.3633 69.4042C40.3497 70.2194 41.7123 70.2194 41.726 69.4042C41.7351 68.9776 41.4171 68.644 40.9765 68.5595C40.7403 68.513 40.5041 68.5595 40.3088 68.6904C40.2134 68.7538 40.1362 68.8256 40.0726 68.9143C40.059 68.9396 40.0454 68.9692 40.0272 68.9945C39.9091 69.2057 39.9409 69.2015 40.1271 68.9818C40.2407 68.9523 40.3542 68.9227 40.4723 68.8974C40.4496 68.9016 40.4269 68.9016 40.4042 68.9058C40.5178 68.9354 40.6313 68.9649 40.7494 68.9903C40.9447 69.079 40.8448 69.0494 40.7721 68.9312C40.7176 68.8382 40.6449 68.7495 40.5632 68.682C40.3043 68.4666 39.9636 68.4117 39.6411 68.5172C39.3822 68.6017 39.1869 68.7876 39.0552 69.003C38.9825 69.1254 38.9462 69.2479 38.9189 69.3831C38.9053 69.4422 38.9189 69.6112 38.878 69.6492C39.2596 69.7421 39.6366 69.835 40.0181 69.9279C39.8001 69.3831 39.6139 68.8256 39.4594 68.2638C39.2369 67.4782 37.9242 67.8119 38.1422 68.6017Z" fill="#727272"/>
<path d="M38.8281 74.6542C39.0733 75.3258 39.3867 75.972 39.7728 76.5802C40.0499 77.0152 40.6631 76.9645 40.9493 76.5802C41.0265 76.4746 41.081 76.3648 41.1173 76.2423C41.1219 76.2043 41.1264 76.1705 41.1355 76.1325C41.2082 75.8875 41.1446 75.8959 40.9356 76.162C40.813 76.162 40.6949 76.162 40.5723 76.162C40.3815 76.1071 40.4678 76.1198 40.5677 76.2212C40.6404 76.293 40.7312 76.369 40.8266 76.4197C41.0219 76.521 41.2536 76.559 41.4761 76.5422C41.9849 76.5084 42.3346 76.1958 42.5027 75.7692C42.807 75.0048 41.4898 74.6711 41.19 75.4314C41.2763 75.2202 41.4898 75.3384 41.4534 75.2371C41.4262 75.1653 41.2672 75.0681 41.1945 75.0301C40.972 74.9119 40.704 74.8865 40.4632 74.9625C40.2407 75.0301 40.0635 75.1864 39.95 75.3764C39.85 75.5454 39.8773 75.7988 39.7683 75.9424C40.1589 75.9424 40.5541 75.9424 40.9447 75.9424C40.6131 75.4229 40.3451 74.8907 40.1362 74.3205C39.8637 73.5519 38.5464 73.8813 38.8281 74.6542Z" fill="#727272"/>
<path d="M40.6222 81.8806C40.6268 82.2312 40.6813 82.5817 40.7994 82.9112C40.8857 83.1519 41.0901 83.3293 41.3672 83.3631C41.617 83.3926 41.9304 83.287 42.0439 83.059C42.1212 82.9069 42.1984 82.7549 42.2756 82.6071C42.3119 82.5353 42.3483 82.4677 42.3801 82.3959C42.3982 82.3621 42.4164 82.3241 42.4346 82.2903C42.4709 82.2269 42.4709 82.2269 42.4346 82.2903C42.3346 82.3452 42.2347 82.4001 42.1348 82.455C42.1484 82.4508 42.1666 82.4423 42.1802 82.4381C42.0576 82.4381 41.9395 82.4381 41.8168 82.4381C41.7941 82.4297 41.7669 82.417 41.7442 82.4085C41.6624 82.3325 41.5806 82.2565 41.4989 82.1805C41.4307 82.0749 41.4943 82.1636 41.5216 82.2354C41.5443 82.303 41.5716 82.3663 41.5943 82.4339C41.6442 82.5648 41.6942 82.7 41.7396 82.8309C41.8577 83.1561 42.2075 83.3673 42.5799 83.2744C42.916 83.1899 43.1749 82.8182 43.0568 82.493C42.8615 81.9693 42.698 81.1077 41.9077 81.2048C41.2945 81.2808 41.0901 81.9735 40.863 82.4212C41.2763 82.4719 41.6942 82.5226 42.1075 82.5733C42.0212 82.3241 41.9804 82.1213 41.9758 81.8764C41.9713 81.5469 41.6669 81.2259 41.2945 81.2428C40.9357 81.2597 40.6177 81.5258 40.6222 81.8806Z" fill="#727272"/>
<path d="M46.8813 82.6493C46.845 82.9365 46.8087 83.228 46.7723 83.5152C46.736 83.7855 47.0085 84.06 47.272 84.1276C47.5808 84.2078 47.867 84.0685 48.0396 83.8362C48.1622 83.6714 48.2849 83.5109 48.4075 83.3462C48.462 83.2702 48.5211 83.1984 48.5756 83.1224C48.5983 83.0928 48.621 83.0632 48.6437 83.0337C48.7436 82.907 48.73 82.9154 48.6074 83.059C48.4938 83.0886 48.3802 83.1182 48.2622 83.1435C48.2849 83.1435 48.303 83.1435 48.3257 83.1435C48.2122 83.1139 48.0986 83.0844 47.9805 83.059C47.8443 82.8394 47.7988 82.7972 47.8443 82.9323C47.8579 82.983 47.867 83.0379 47.8806 83.0886C47.9033 83.1942 47.926 83.2955 47.9533 83.4011C48.0032 83.6208 48.026 83.8784 48.1486 84.0769C48.2667 84.2627 48.462 84.4232 48.6891 84.4824C49.0389 84.5711 49.325 84.4063 49.5294 84.1529C49.752 83.8784 49.5748 83.4434 49.2841 83.2871C48.9344 83.097 48.5756 83.2406 48.353 83.5152C48.3439 83.5278 48.3348 83.5405 48.3257 83.549C48.5211 83.4434 48.7164 83.3378 48.9162 83.2364C48.9026 83.2364 48.889 83.2406 48.8753 83.2406C48.9889 83.2702 49.1025 83.2998 49.2205 83.3251C49.3386 83.38 49.4113 83.6883 49.3432 83.3758C49.325 83.2871 49.3023 83.2026 49.2841 83.1139C49.2478 82.9577 49.216 82.8014 49.1797 82.6451C49.0979 82.3157 48.8844 81.9947 48.512 81.8975C48.0986 81.792 47.7716 82.0116 47.5399 82.2988C47.3083 82.5902 47.0903 82.8901 46.8677 83.1857C47.2901 83.2913 47.7125 83.3969 48.1395 83.5067C48.1758 83.2195 48.2122 82.9281 48.2485 82.6409C48.2894 82.2988 47.9033 82.0074 47.5672 82.0074C47.1629 82.0158 46.9268 82.3115 46.8813 82.6493Z" fill="#727272"/>
<path d="M47.5354 71.0809C47.3673 71.7567 47.2856 72.4494 47.2992 73.142C47.3083 73.7376 48.253 74.0459 48.571 73.463C48.7073 73.2096 48.8435 72.9604 48.9798 72.707C49.0797 72.5212 49.1524 72.2889 49.3341 72.1579C49.2342 72.2128 49.1342 72.2678 49.0343 72.3227C49.0343 72.3184 49.0343 72.3142 49.0388 72.31C48.8208 72.1537 48.6028 72.0017 48.3802 71.8454C48.4665 72.1453 48.5528 72.4451 48.6391 72.745C48.7481 73.1209 49.2705 73.349 49.6384 73.1251C49.702 73.0871 49.7656 73.0449 49.8292 73.0069C50.5559 72.5592 49.8746 71.461 49.1433 71.913C49.0797 71.951 49.0161 71.9932 48.9525 72.0312C49.2841 72.1579 49.6202 72.2846 49.9518 72.4114C49.8655 72.1115 49.7792 71.8116 49.6929 71.5117C49.6157 71.2456 49.3341 71.0429 49.0343 71.0471C48.0759 71.064 47.7489 72.1706 47.3946 72.8295C47.817 72.9351 48.2394 73.0407 48.6664 73.1505C48.6573 72.5634 48.7118 71.9974 48.8526 71.423C49.0434 70.6248 47.7307 70.2869 47.5354 71.0809Z" fill="#727272"/>
<path d="M46.2363 61.6032C46.2681 62.1015 46.2954 62.5957 46.3272 63.0941C46.3635 63.7192 47.2265 63.9599 47.599 63.4151C47.8624 63.0265 48.1259 62.6422 48.3893 62.2536C47.9987 62.2536 47.6035 62.2536 47.2129 62.2536C47.3083 62.4056 47.3673 62.545 47.3764 62.7224C47.4082 63.2799 48.0941 63.546 48.5392 63.1701C48.8844 62.8829 49.107 62.5366 49.275 62.1353C48.9435 62.262 48.6073 62.3887 48.2758 62.5154C48.2758 62.5239 48.2758 62.5323 48.2712 62.5366C48.2122 62.4436 48.1531 62.3507 48.0941 62.2578C48.1077 62.2831 48.1168 62.3127 48.1304 62.3381C48.2712 62.6548 48.5801 62.8787 48.9707 62.7815C49.2887 62.7013 49.5885 62.3212 49.4476 62.0002C49.3295 61.7425 49.2069 61.5863 48.9616 61.4173C48.5755 61.1512 48.1032 61.4553 47.9624 61.7974C47.8806 61.9917 47.7398 62.1353 47.5763 62.2747C47.9624 62.4225 48.353 62.5746 48.7391 62.7224C48.7164 62.3254 48.6073 61.9579 48.3893 61.6158C48.1213 61.1977 47.4854 61.2146 47.2129 61.6158C46.9494 62.0044 46.686 62.3887 46.4226 62.7773C46.845 62.8829 47.2674 62.9885 47.6944 63.0983C47.6626 62.5999 47.6353 62.1058 47.6035 61.6074C47.549 60.7922 46.1864 60.788 46.2363 61.6032Z" fill="#727272"/>
<path d="M46.6043 53.2278C46.5634 53.5488 46.5452 53.8698 46.5543 54.1908C46.5679 54.6301 47.1402 55.0355 47.5808 54.7399C47.8079 54.5878 47.9487 54.4147 48.026 54.1655C48.0441 54.1063 48.0623 54.0388 48.0714 53.9796C48.0805 53.9247 48.1168 53.9205 48.0668 53.9627C47.8306 54.1655 47.5808 54.4569 47.2038 54.0345C47.2447 54.081 47.2311 54.0768 47.2038 54.0219C47.2356 54.0852 47.2583 54.157 47.2901 54.2204C47.3446 54.3302 47.4264 54.4273 47.5172 54.5118C47.7989 54.7694 48.2167 54.8201 48.5574 54.6385C48.8799 54.4696 48.9844 54.0641 48.8027 53.7727C48.6119 53.4728 48.194 53.3757 47.8715 53.5446C47.8579 53.553 47.8397 53.5615 47.8261 53.5699C47.9397 53.5404 48.0532 53.5108 48.1713 53.4855C48.2076 53.4812 48.5347 53.6502 48.5074 53.6586C48.5256 53.6924 48.5256 53.6924 48.512 53.6629C48.4983 53.6291 48.4847 53.5953 48.4666 53.5615C48.412 53.439 48.3485 53.325 48.2485 53.2236C48.026 53.0082 47.6808 52.9026 47.3673 52.9955C47.0721 53.08 46.8768 53.2996 46.7814 53.5657C46.7587 53.6248 46.7496 53.684 46.7314 53.7473C46.7224 53.7769 46.7133 53.8022 46.7087 53.8318C46.6906 53.8867 46.6906 53.8867 46.7133 53.8318C46.7405 53.7515 46.7996 53.6882 46.8904 53.646C47.2311 53.8276 47.5717 54.0092 47.9169 54.195C47.9079 53.874 47.926 53.553 47.9669 53.232C48.0123 52.9026 47.6217 52.5858 47.2856 52.5985C46.8813 52.6154 46.6542 52.8773 46.6043 53.2278Z" fill="#727272"/>
<path d="M46.1864 46.732C46.0592 47.1966 46.1228 47.6738 46.3908 48.0835C46.7087 48.5819 47.44 48.4298 47.6353 47.9315C47.708 47.7456 47.599 48.0455 47.6671 47.8554C47.6944 47.7836 47.7171 47.8174 47.649 47.847C47.44 47.9484 47.1584 47.8808 47.0948 47.6274C47.1811 47.961 47.5854 48.1595 47.9351 48.0708C48.2985 47.9779 48.4984 47.6274 48.4121 47.2895C48.2894 46.808 47.7262 46.5504 47.222 46.6602C46.7269 46.7742 46.4862 47.1754 46.3227 47.5894C46.736 47.5387 47.1539 47.488 47.5672 47.4373C47.4991 47.3275 47.49 47.3359 47.4764 47.205C47.4854 47.2726 47.4809 47.1881 47.4809 47.167C47.49 46.9812 47.4537 47.243 47.4991 47.0614C47.5854 46.7404 47.3855 46.3603 47.0221 46.28C46.6724 46.2125 46.2818 46.3856 46.1864 46.732Z" fill="#727272"/>
<path d="M26.7095 45.237C26.5097 45.482 26.328 45.7396 26.169 46.01C25.901 46.4534 26.3552 47.1461 26.9366 46.9391C27.1456 46.8673 27.35 46.7913 27.5589 46.7195C27.2818 46.5717 27.0002 46.4239 26.7186 46.276C26.7549 46.3732 26.7731 46.4365 26.7686 46.5337C26.764 46.8547 27.0865 47.1968 27.4499 47.1672C27.7905 47.1419 28.0812 47.0659 28.3856 46.9307C28.7171 46.7829 28.8034 46.3394 28.6308 46.0649C28.431 45.7481 28.0313 45.689 27.6997 45.8368C27.6316 45.8664 27.5044 45.8959 27.4499 45.9001C27.677 46.1113 27.9041 46.3225 28.1312 46.5337C28.1357 46.331 28.104 46.1282 28.0313 45.9382C27.9177 45.6383 27.5589 45.368 27.191 45.4947C26.982 45.5665 26.7776 45.6425 26.5687 45.7143C26.8231 46.0226 27.082 46.3352 27.3363 46.6435C27.4998 46.3732 27.677 46.1155 27.8768 45.8706C28.0994 45.596 27.9223 45.161 27.6316 45.0047C27.2909 44.8231 26.9321 44.9625 26.7095 45.237Z" fill="#727272"/>
<path d="M22.8533 52.3494C22.5944 52.8774 22.3718 53.418 22.1901 53.9755C22.0766 54.3218 22.3264 54.6428 22.667 54.7569C22.9577 54.854 23.2711 54.7949 23.5255 54.6428C23.6345 54.5753 23.7072 54.5077 23.789 54.419C24.1024 54.0726 23.6709 54.5203 23.4165 54.2289C23.3574 54.136 23.2984 54.0431 23.2394 53.9502C23.203 53.8319 23.2303 54.0769 23.2303 54.0726C23.2439 54.1698 23.2711 54.2712 23.3257 54.3599C23.4301 54.5246 23.6209 54.6597 23.8162 54.7104C24.1841 54.8033 24.6565 54.6724 24.8155 54.3261C24.9608 54.0135 24.9154 53.6461 24.5702 53.4602C24.2841 53.304 23.7844 53.3715 23.6391 53.6883C23.6527 53.6714 23.6663 53.6545 23.6845 53.6418C23.7844 53.5869 23.8843 53.532 23.9843 53.4771C24.1205 53.5151 24.2568 53.5531 24.3931 53.5912C24.4521 53.6841 24.5112 53.777 24.5702 53.8699C24.6065 53.9882 24.5793 53.6968 24.5702 53.6672C24.5339 53.5405 24.4703 53.4264 24.3794 53.3335C24.2114 53.1688 23.9934 53.0717 23.7481 53.059C23.5255 53.0505 23.3211 53.1097 23.1394 53.2279C23.0531 53.2828 22.9804 53.3462 22.9123 53.4222C22.6307 53.7263 22.826 53.4687 23.035 53.5363C23.1939 53.7981 23.3529 54.0558 23.5119 54.3176C23.6572 53.8657 23.8298 53.4264 24.0388 52.9956C24.1887 52.6831 24.1342 52.3156 23.7935 52.1298C23.4937 51.9651 23.0032 52.0369 22.8533 52.3494Z" fill="#727272"/>
<path d="M21.3453 59.821C21.1999 60.5474 21.1999 61.2528 21.3544 61.9792C21.4316 62.3382 21.8494 62.4734 22.1947 62.4227C22.3945 62.3931 22.5807 62.2875 22.7215 62.1482C22.7806 62.089 22.8351 62.0172 22.8851 61.9497C22.9123 61.9116 22.935 61.8736 22.9577 61.8314C22.9986 61.7723 22.985 61.7765 22.9078 61.8356C22.7851 61.8356 22.667 61.8356 22.5444 61.8356C22.5762 61.8441 22.608 61.8525 22.6398 61.861C22.5399 61.8061 22.4399 61.7511 22.34 61.6962C22.29 61.5991 22.2855 61.6033 22.3309 61.7089C22.3536 61.7596 22.3763 61.8103 22.3991 61.861C22.4717 61.9877 22.5717 62.089 22.6988 62.1651C23.0032 62.3551 23.2802 62.3424 23.6073 62.2031C23.9434 62.0637 24.0251 61.6075 23.8525 61.3372C23.6527 61.0162 23.2575 60.9698 22.9214 61.1092C22.8987 61.1176 22.8714 61.1303 22.8487 61.1387C23.0259 61.1176 23.1985 61.0965 23.3756 61.0754C23.3484 61.0669 23.3211 61.0627 23.2939 61.0543C23.3938 61.1092 23.4937 61.1641 23.5936 61.219C23.6209 61.3034 23.6209 61.3119 23.5982 61.2485C23.5755 61.181 23.5482 61.1176 23.5164 61.0585C23.4755 60.9867 23.4301 60.9149 23.3665 60.8557C23.1758 60.6657 22.9123 60.577 22.6352 60.6023C22.3945 60.6234 22.181 60.7333 22.013 60.8938C21.9312 60.9698 21.8631 61.0585 21.804 61.1514C21.7904 61.1767 21.7722 61.2021 21.7586 61.2274C21.6723 61.3457 21.695 61.333 21.8313 61.1936C22.1084 61.3415 22.39 61.4893 22.6716 61.6371C22.5671 61.1472 22.5626 60.6446 22.6625 60.1546C22.7306 59.8167 22.5626 59.4704 22.1856 59.3733C21.8494 59.293 21.4134 59.4831 21.3453 59.821Z" fill="#727272"/>
<path d="M22.3172 68.9649C22.508 69.3196 22.6942 69.6744 22.885 70.0292C23.0531 70.3417 23.5118 70.4135 23.8162 70.2573C24.0614 70.1306 24.2295 69.9278 24.3067 69.6744C24.3431 69.5604 24.3658 69.4168 24.3521 69.2985C24.3385 69.1634 24.4021 69.2014 24.3249 69.2647C24.225 69.3196 24.125 69.3745 24.0251 69.4294C24.016 69.4337 24.0069 69.4337 23.9979 69.4379C23.8843 69.4083 23.7707 69.3788 23.6526 69.3534C23.8888 69.4801 24.0024 69.6829 24.3476 69.6829C24.7564 69.6829 24.8472 69.459 25.0925 69.2352C24.9926 69.2901 24.8927 69.345 24.7927 69.3999C24.661 69.3239 24.5293 69.2478 24.3976 69.1676C24.4521 69.5055 24.9108 69.6913 25.2379 69.6111C25.6285 69.5097 25.7693 69.1718 25.7148 68.8297C25.6512 68.4496 25.2651 68.1666 24.8654 68.1286C24.3976 68.0864 24.0932 68.3229 23.8707 68.6777C23.9524 68.6016 24.0342 68.5256 24.1159 68.4496C24.0932 68.4665 24.066 68.4834 24.0433 68.5003C24.1568 68.4707 24.2704 68.4411 24.3885 68.4158C24.3658 68.4158 24.3385 68.4158 24.3158 68.4158C24.4294 68.4454 24.5429 68.4749 24.661 68.5003C24.5792 68.458 24.3658 68.2426 24.1841 68.1962C23.9252 68.1286 23.6526 68.1793 23.4392 68.3271C23.2484 68.458 23.1167 68.6523 23.0485 68.8593C23.0031 68.9902 23.0531 69.2563 22.9804 69.3492C23.0622 69.2732 23.1439 69.1972 23.2257 69.1211C23.1984 69.1338 23.1712 69.1507 23.1394 69.1634C23.4482 69.2394 23.7617 69.3154 24.0705 69.3914C23.8798 69.0367 23.6935 68.6819 23.5028 68.3271C23.103 67.5922 21.9266 68.2342 22.3172 68.9649Z" fill="#727272"/>
<path d="M26.5233 78.3751C26.5006 78.9199 27.1093 79.2282 27.6225 79.0804C27.8678 79.0086 28.0449 78.8481 28.163 78.6454C28.1812 78.6116 28.1994 78.5736 28.2176 78.5398C28.3175 78.392 28.2176 78.4342 27.9087 78.6749C27.7679 78.658 27.8315 78.658 27.9314 78.7087C28.2539 78.8734 28.6763 78.7805 28.8625 78.4807C29.0442 78.1892 28.9398 77.7795 28.6173 77.6148C28.2811 77.4417 27.8996 77.3403 27.5271 77.4839C27.3364 77.5599 27.1774 77.6866 27.0684 77.8556C27.0366 77.902 27.0048 77.9569 26.9866 78.0118C26.9775 78.0287 26.9685 78.0456 26.9594 78.0625C27.1956 77.8176 27.4408 77.7964 27.6997 77.9992C27.7588 78.0921 27.8178 78.185 27.8769 78.2779C27.8814 78.3117 27.886 78.3455 27.8905 78.3793C27.9041 78.0456 27.568 77.7289 27.2092 77.7458C26.8231 77.7584 26.5369 78.0203 26.5233 78.3751Z" fill="#727272"/>
<path d="M51.7006 46.9897C51.7823 47.3698 51.9231 47.7246 52.1003 48.0751C52.2684 48.4003 52.7271 48.4426 53.0314 48.3032C53.204 48.223 53.3448 48.0794 53.4357 47.9231C53.4629 47.8766 53.4811 47.8259 53.5084 47.7753C53.6537 47.4838 53.5038 47.9231 53.1541 47.8893C53.0405 47.8597 52.927 47.8302 52.8089 47.8048C52.7317 47.771 52.9224 47.8851 52.9224 47.8851C52.9951 47.9358 53.0451 47.9653 53.1314 47.9991C53.3085 48.0709 53.4902 48.0836 53.681 48.0582C54.0898 47.9949 54.3305 47.7499 54.4849 47.4078C54.6257 47.091 54.3305 46.7109 54.008 46.6264C53.6174 46.5251 53.3131 46.7532 53.1677 47.0699C53.3267 46.7954 53.5265 46.7363 53.7627 46.8925C53.7446 46.8756 53.7264 46.8587 53.7037 46.8461C53.6174 46.7658 53.4539 46.6814 53.3358 46.6518C53.1177 46.5969 52.8815 46.6307 52.6908 46.7363C52.5318 46.825 52.4182 46.9643 52.341 47.1164C52.3229 47.1544 52.3002 47.1966 52.282 47.2389C52.232 47.374 52.2593 47.2473 52.341 47.2135C52.6499 47.2895 52.9633 47.3656 53.2722 47.4416C53.145 47.1924 53.0678 46.9305 53.0087 46.6602C52.9406 46.3223 52.5045 46.1323 52.1684 46.2168C51.8005 46.3055 51.6324 46.6518 51.7006 46.9897Z" fill="#727272"/>
<path d="M53.2812 54.2415C53.3675 54.6428 53.4584 55.044 53.5447 55.4452C53.69 56.1083 54.6484 55.9858 54.8574 55.4452C54.9255 55.2636 55.0436 55.1454 55.1935 55.0187C54.8347 54.9764 54.4804 54.9342 54.1215 54.8919C54.2396 55.1454 54.3623 55.403 54.4804 55.6564C54.6166 55.9478 55.1435 56.0745 55.4115 55.8845C55.575 55.7704 55.7068 55.6691 55.8112 55.5001C55.8476 55.441 55.8884 55.3692 55.9112 55.3016C55.9202 55.2721 55.9339 55.2425 55.952 55.2172C56.061 55.0313 55.8521 54.9722 55.3207 55.0398C55.2707 55.3777 55.6704 55.6733 56.002 55.6733C56.4108 55.6733 56.6334 55.3819 56.6833 55.0398C56.7605 54.5118 56.2291 54.0346 55.6795 54.0346C55.4024 54.0346 55.1526 54.1486 54.9664 54.3302C54.8801 54.4147 54.821 54.5076 54.762 54.609C54.7256 54.6765 54.5848 54.8877 54.7256 54.7906C55.0345 54.8666 55.3479 54.9426 55.6568 55.0187C55.5387 54.7652 55.4161 54.5076 55.298 54.2542C55.1117 53.8572 54.5167 53.8825 54.226 54.1275C53.899 54.402 53.69 54.7314 53.5401 55.1116C53.9762 55.1116 54.4168 55.1116 54.8528 55.1116C54.7665 54.7103 54.6757 54.3091 54.5894 53.9079C54.4213 53.1054 53.1041 53.4433 53.2812 54.2415Z" fill="#727272"/>
<path d="M54.4758 63.9305C54.4349 64.2473 54.4758 64.5725 54.5667 64.8766C54.6802 65.244 55.198 65.4932 55.566 65.2567C55.8067 65.1004 55.952 64.9315 56.0565 64.6781C56.0838 64.6147 56.1065 64.5471 56.1292 64.4795C56.1701 64.3444 56.1292 64.526 56.0111 64.5429C55.8884 64.5429 55.7703 64.5429 55.6477 64.5429C55.5342 64.5007 55.4615 64.4373 55.4433 64.3444C55.4297 64.3022 55.4342 64.3148 55.4615 64.3824C55.4751 64.4204 55.4887 64.4627 55.5024 64.5007C55.5796 64.695 55.6886 64.8512 55.8612 64.9822C56.2337 65.2609 56.6561 65.2145 57.0194 64.9526C57.3101 64.7414 57.2556 64.2768 57.0194 64.0572C56.7333 63.7911 56.3472 63.846 56.0565 64.0572C56.0429 64.0699 56.0247 64.0783 56.0111 64.091C56.111 64.0361 56.2109 63.9812 56.3109 63.9263C56.2927 63.9305 56.2745 63.9347 56.2564 63.9389C56.379 63.9389 56.4971 63.9389 56.6197 63.9389C56.7015 63.9516 56.8196 64.1839 56.7696 64.0445C56.7333 63.9347 56.6879 63.8207 56.6243 63.7235C56.4335 63.4363 56.0974 63.2716 55.7386 63.3054C55.4206 63.335 55.1617 63.5208 54.9891 63.7658C54.9164 63.8714 54.8665 63.9896 54.8256 64.1079C54.812 64.1459 54.7847 64.2008 54.7802 64.2388C54.7756 64.2937 54.7665 64.2261 54.8801 64.1543C55.2117 64.281 55.5478 64.4077 55.8794 64.5345C55.8158 64.3275 55.8067 64.1417 55.8339 63.9263C55.8748 63.5842 55.4887 63.2927 55.1526 63.2927C54.7574 63.2969 54.5212 63.5884 54.4758 63.9305Z" fill="#727272"/>
<path d="M54.0988 71.3894C54.0625 71.8033 54.0988 72.2088 54.1669 72.6185C54.2487 73.0957 54.98 73.2182 55.307 72.8972C55.4251 72.7832 55.5478 72.6692 55.675 72.5636C55.7885 72.4707 55.9066 72.3777 55.9974 72.3186C55.6659 72.1919 55.3297 72.0652 54.9982 71.9385C55.039 72.0483 55.039 71.9216 55.0254 72.0399C55.0345 71.9512 54.9709 72.1201 55.0163 72.0483C54.8392 72.3482 54.9391 72.741 55.2616 72.9141C55.575 73.0831 56.0156 72.9902 56.1928 72.6861C56.3881 72.3524 56.4517 71.9638 56.3154 71.6006C56.1837 71.2543 55.6931 70.9628 55.3161 71.2205C54.9709 71.457 54.6484 71.7104 54.3532 71.9976C54.7347 72.0905 55.1117 72.1835 55.4933 72.2764C55.4478 72.0018 55.4478 71.6808 55.4706 71.381C55.4978 71.0515 55.139 70.7348 54.7892 70.7474C54.3895 70.7728 54.1306 71.0346 54.0988 71.3894Z" fill="#727272"/>
<path d="M53.6628 79.6634C53.4175 80.0477 53.2313 80.4701 53.1268 80.9093C53.0451 81.243 53.2358 81.5936 53.6038 81.6907C53.9853 81.7878 54.3123 81.5724 54.444 81.2472C54.4849 81.1416 54.6212 80.9136 54.6939 80.8249C54.3714 80.8249 54.0534 80.8249 53.7309 80.8249C53.6492 80.732 53.6265 80.6306 53.6583 80.5123C53.5992 80.8502 53.7536 81.1923 54.1352 81.2937C54.4622 81.3782 54.9119 81.1923 54.9755 80.8502C55.0391 80.4997 54.9709 80.1913 54.6984 79.9295C54.4622 79.7014 53.9626 79.6634 53.7355 79.9295C53.472 80.2336 53.2813 80.5419 53.1314 80.9093C53.5674 81.0234 54.008 81.1332 54.444 81.2472C54.5303 80.8924 54.6439 80.6137 54.8438 80.3054C55.03 80.0097 54.9164 79.6085 54.5985 79.4395C54.276 79.2621 53.8536 79.3677 53.6628 79.6634Z" fill="#727272"/>
<path d="M58.6501 82.1934C58.3685 82.5355 58.2368 82.9578 58.2141 83.3844C58.2004 83.6336 58.3957 83.8743 58.6319 83.963C58.8999 84.0644 59.1588 84.0053 59.3768 83.8321C59.713 83.566 60.0491 83.2957 60.3852 83.0296C60.0264 82.9874 59.6721 82.9452 59.3133 82.9029C59.286 82.8649 59.2996 82.81 59.3042 82.7678C59.3087 82.7382 59.3814 82.6368 59.3087 82.7424C59.1134 83.0338 59.2406 83.4393 59.554 83.6083C59.881 83.7856 60.2898 83.6716 60.4851 83.3802C60.7168 83.0381 60.7122 82.603 60.4897 82.2567C60.2489 81.885 59.7538 81.8639 59.4177 82.13C59.0816 82.3961 58.7455 82.6664 58.4094 82.9325C58.7954 83.0803 59.1861 83.2324 59.5722 83.3802C59.5812 83.1901 59.5358 83.4647 59.5812 83.283C59.5994 83.2197 59.6176 83.1521 59.6403 83.0888C59.604 83.1775 59.6948 83.0001 59.6948 82.9958C59.7311 82.9367 59.772 82.8818 59.8174 82.8311C60.04 82.5566 59.8629 82.1216 59.5722 81.9653C59.2315 81.7752 58.8772 81.9188 58.6501 82.1934Z" fill="#727272"/>
<path d="M61.1665 73.898C61.0711 74.3795 61.0166 74.8652 61.012 75.3594C61.0029 75.9802 61.9523 76.2337 62.2838 75.6804C62.4882 75.334 62.729 75.0342 63.0288 74.7554C62.7517 74.7892 62.4792 74.823 62.2021 74.8526C62.1885 74.8441 62.1703 74.8314 62.1567 74.823C62.0976 74.7301 62.0386 74.6372 61.9795 74.5442C61.9659 74.5062 62.0113 74.388 61.9659 74.5231C61.9341 74.6076 61.9159 74.7427 61.9114 74.823C61.9023 75.0257 61.9659 75.2242 62.0931 75.3889C62.2384 75.5706 62.4792 75.693 62.729 75.693C62.8652 75.693 63.0242 75.655 63.1423 75.5959C63.165 75.5832 63.1832 75.5748 63.2059 75.5621C63.3149 75.4988 63.2831 75.4945 63.1105 75.5494C62.997 75.5199 62.8834 75.4903 62.7653 75.465C62.5836 75.3805 62.57 75.2834 62.5882 75.1609C62.5382 75.4988 62.679 75.8409 63.0651 75.9422C63.383 76.0225 63.8509 75.8409 63.9054 75.4988C63.9599 75.1355 63.9417 74.7681 63.6419 74.4935C63.4921 74.3584 63.2649 74.2781 63.056 74.2824C62.9197 74.2866 62.7608 74.3288 62.6427 74.388C62.6109 74.4049 62.461 74.464 62.5473 74.4471C62.6699 74.4471 62.788 74.4471 62.9107 74.4471C62.8925 74.4429 62.8698 74.4344 62.8516 74.4302C62.9515 74.4851 63.0515 74.54 63.1514 74.5949C63.1968 74.9455 63.2377 75.0342 63.2786 74.861C63.2967 74.8188 63.3058 74.7765 63.3149 74.7301C63.3376 74.6329 63.3467 74.5316 63.3376 74.4302C63.3195 74.1514 63.165 73.8854 62.8879 73.7629C62.6154 73.6362 62.2884 73.6531 62.0613 73.86C61.6843 74.2106 61.3618 74.6076 61.1029 75.0384C61.5253 75.144 61.9477 75.2496 62.3747 75.3594C62.3792 74.9835 62.411 74.6076 62.4837 74.2359C62.5473 73.898 62.3838 73.5517 62.0068 73.4546C61.6706 73.3701 61.2301 73.5601 61.1665 73.898Z" fill="#727272"/>
<path d="M62.084 65.1766C61.8886 65.6116 61.8841 66.1058 62.034 66.5535C62.2429 67.1701 63.1241 67.1405 63.3467 66.5535C63.4602 66.2494 63.6646 66.0086 63.9235 65.7974C63.5375 65.6496 63.1468 65.4976 62.7607 65.3497C62.7744 65.5651 62.7925 65.7805 62.8062 65.9917C62.8334 66.3634 63.0969 66.583 63.4875 66.6253C63.7055 66.6506 63.9054 66.583 64.0871 66.4732C64.1643 66.4267 64.2324 66.3718 64.2914 66.3085C64.3142 66.2789 64.3414 66.2536 64.3641 66.2282C64.4459 66.148 64.3778 66.1649 64.1552 66.2789C64.0416 66.2494 63.9281 66.2198 63.81 66.1944C63.7736 66.1564 63.7328 66.1184 63.6964 66.0804C63.6646 65.9748 63.6328 65.8692 63.6056 65.7594C63.6056 65.7763 63.6056 65.7932 63.6101 65.8101C63.6419 65.7045 63.6737 65.5989 63.701 65.4891C63.6919 65.5018 63.6828 65.5187 63.6737 65.5313C63.2104 66.2282 64.3914 66.866 64.8501 66.1691C65.1227 65.7594 64.8956 65.2273 64.4186 65.0668C64.1688 64.9823 63.9145 64.9992 63.6828 65.1174C63.5874 65.1639 63.5057 65.2315 63.4284 65.3033C63.4103 65.3202 63.3966 65.3413 63.3785 65.3582C63.2876 65.4427 63.324 65.4427 63.4875 65.3582C63.7146 65.5694 63.9417 65.7805 64.1688 65.9917C64.1552 65.7763 64.137 65.5609 64.1234 65.3497C64.0825 64.788 63.4148 64.5304 62.9606 64.902C62.5245 65.261 62.2248 65.7087 62.034 66.2156C62.47 66.2156 62.9106 66.2156 63.3467 66.2156C63.2604 65.9579 63.2876 65.7594 63.3966 65.5145C63.5374 65.1977 63.2422 64.8176 62.9197 64.7331C62.5291 64.6317 62.2248 64.8598 62.084 65.1766Z" fill="#727272"/>
<path d="M61.5162 54.0725C61.5526 54.4273 61.5934 54.7863 61.6298 55.1411C61.6616 55.4536 61.8614 55.7239 62.2203 55.7619C62.5473 55.7999 62.8834 55.6183 62.9697 55.31C63.0424 55.0397 63.1423 54.7947 63.2877 54.554C62.8971 54.554 62.5019 54.554 62.1113 54.554C62.1794 54.6722 62.2475 54.7905 62.3111 54.9045C62.5609 55.3396 63.2241 55.2889 63.4875 54.9045C63.5102 54.8708 63.542 54.8412 63.542 54.8285C63.6147 54.7694 63.5648 54.7736 63.4012 54.8412C63.3286 54.8792 63.2559 54.8877 63.1832 54.875C63.1015 54.799 63.0197 54.7229 62.9379 54.6469C62.9334 54.63 62.9289 54.6131 62.9243 54.5962C63.1878 55.3691 64.505 55.0397 64.237 54.2583C64.1007 53.8613 63.7283 53.6121 63.2741 53.6248C62.8335 53.6375 62.5246 53.9416 62.3066 54.2626C62.6972 54.2626 63.0924 54.2626 63.483 54.2626C63.4149 54.1443 63.3467 54.026 63.2831 53.912C63.0469 53.4981 62.3475 53.5023 62.1067 53.912C61.9114 54.2457 61.757 54.6004 61.6525 54.9721C62.0976 55.027 62.5428 55.0862 62.9924 55.1411C62.9561 54.7863 62.9152 54.4273 62.8789 54.0725C62.8425 53.7304 62.5927 53.439 62.1976 53.439C61.8569 53.439 61.4799 53.7304 61.5162 54.0725Z" fill="#727272"/>
<path d="M58.1414 46.9897C58.314 47.3952 58.5275 47.7331 58.8273 48.071C59.1725 48.4596 59.822 48.2061 59.9673 47.7922C60.0718 47.4881 60.1172 47.1587 60.0854 46.8419C59.663 46.9475 59.2406 47.0531 58.8136 47.1629C58.9454 47.3994 59.1316 47.6148 59.3542 47.7838C59.6403 47.9992 60.04 48.0414 60.3171 47.7838C60.5578 47.5599 60.6032 47.1038 60.3171 46.8884C60.2353 46.8292 60.1581 46.7617 60.0945 46.6899C60.0264 46.6096 60.1354 46.7532 60.0764 46.6645C60.0446 46.6181 60.0173 46.5716 59.9901 46.5252C59.8492 46.2717 59.4995 46.1577 59.2179 46.2295C58.9499 46.2971 58.691 46.5674 58.7182 46.8419C58.7455 47.108 58.7364 47.2136 58.6501 47.4543C59.0317 47.3614 59.4087 47.2685 59.7902 47.1756C59.7312 47.1122 59.6721 47.032 59.604 46.9222C59.5722 46.8715 59.5404 46.8166 59.5086 46.7659C59.4995 46.7532 59.4268 46.5927 59.4495 46.6561C59.3133 46.3393 58.9953 46.1155 58.6092 46.2126C58.2913 46.2929 58.0051 46.6688 58.1414 46.9897Z" fill="#727272"/>
<path d="M65.0228 46.4998C65.0773 46.7659 65.1863 47.0235 65.3362 47.26C65.4906 47.5008 65.8131 47.6275 66.1038 47.5514C66.4127 47.4712 66.5762 47.222 66.6035 46.939C66.6352 46.6434 66.667 46.3435 66.6988 46.0479C66.3582 46.2295 66.0175 46.4111 65.6723 46.5969C65.8812 46.7405 66.0902 46.8883 66.2991 47.0319C66.5944 47.2347 67.0622 47.0784 67.2303 46.8039C67.4347 46.4829 67.2802 46.1408 66.985 45.938C66.7761 45.7944 66.5671 45.6466 66.3582 45.503C66.1674 45.3721 65.8631 45.3974 65.6723 45.503C65.4497 45.6255 65.3589 45.8198 65.3362 46.0521C65.3044 46.3477 65.2726 46.6476 65.2408 46.9433C65.6632 46.8377 66.0856 46.7321 66.5126 46.6223C66.4036 46.4533 66.3763 46.3731 66.3355 46.1661C66.2673 45.8282 65.8313 45.6382 65.4952 45.7226C65.1227 45.8156 64.9592 46.1619 65.0228 46.4998Z" fill="#727272"/>
<path d="M68.0478 54.1022C68.1114 54.4528 68.2023 54.7907 68.3249 55.1285C68.4657 55.5298 68.9199 55.6987 69.3242 55.5087C69.574 55.3904 69.733 55.1708 69.7966 54.9216C69.8284 54.8076 69.8329 54.6851 69.842 54.5626C69.842 54.5204 69.8465 54.4781 69.8511 54.4359C69.842 54.6133 69.7148 54.7273 69.465 54.7864C69.3514 54.7569 69.2379 54.7273 69.1198 54.702C69.6558 54.9469 70.0737 55.1117 70.6868 54.9849C71.5408 54.8076 71.1819 53.5827 70.3235 53.7643C70.11 53.8108 69.9874 53.6925 69.8057 53.6081C69.4877 53.4645 69.1243 53.4856 68.8473 53.6883C68.6383 53.8404 68.5429 54.0515 68.5066 54.2923C68.493 54.3852 68.4884 54.4739 68.4794 54.5668C68.4703 54.6471 68.4748 54.6513 68.4839 54.5879C68.4385 54.7315 68.4884 54.6724 68.6383 54.419C68.9699 54.5457 69.306 54.6724 69.6376 54.7991C69.5195 54.4612 69.4287 54.1233 69.3605 53.7728C69.2969 53.4349 68.8518 53.2448 68.5202 53.3293C68.1387 53.418 67.9843 53.7643 68.0478 54.1022Z" fill="#727272"/>
<path d="M69.6331 63.2675C69.5876 63.5885 69.5377 63.9095 69.4922 64.2305C69.4514 64.5134 69.5195 64.7922 69.8057 64.9442C70.0418 65.0752 70.4506 65.0625 70.6323 64.8471C70.7323 64.7246 70.8322 64.6232 70.9912 64.5726C70.705 64.3698 70.4143 64.1671 70.1281 63.9601C70.1372 64.2136 70.1418 64.467 70.1509 64.7204C70.1645 65.1427 70.5733 65.4299 71.0139 65.3328C71.2319 65.2863 71.4136 65.185 71.5862 65.0583L71.7542 64.9358C71.7406 64.9189 71.5226 64.9316 71.4726 64.8809C71.4136 64.788 71.3545 64.695 71.2955 64.6021C71.3046 64.6232 71.3091 64.6444 71.3182 64.6655C71.6044 65.4299 72.9216 65.1005 72.6309 64.3276C72.4719 63.9095 72.1085 63.6729 71.6271 63.6856C71.4318 63.6898 71.2274 63.749 71.0593 63.8419C70.923 63.9179 70.7959 64.0742 70.6414 64.108C70.9276 64.3107 71.2183 64.5134 71.5044 64.7204C71.4953 64.467 71.4908 64.2136 71.4817 63.9601C71.4726 63.5716 71.0502 63.2126 70.6187 63.3477C70.2417 63.4702 69.9056 63.656 69.6603 63.9517C70.0418 64.1586 70.4188 64.3614 70.8004 64.5683C70.8458 64.2473 70.8958 63.9264 70.9412 63.6054C70.9912 63.2675 70.8549 62.9254 70.4643 62.824C70.1554 62.7438 69.683 62.9254 69.6331 63.2675Z" fill="#727272"/>
<path d="M67.6754 73.7587C67.58 74.1177 67.4846 74.4767 67.3938 74.8357C67.3075 75.1652 67.5028 75.5284 67.8707 75.6171C68.1977 75.6973 68.5112 75.6382 68.7791 75.4397C68.9926 75.2792 69.0698 75.03 69.2652 74.8737C69.1652 74.9286 69.0653 74.9835 68.9654 75.0384C68.9972 75.0258 69.029 75.0131 69.0653 75.0004C68.9427 75.0004 68.8246 75.0004 68.7019 75.0004C68.7337 75.0047 68.7655 75.0131 68.8019 75.0173C68.6656 74.9202 68.5293 74.823 68.3931 74.7259C68.384 74.6752 68.3885 74.6879 68.4021 74.7724C68.4339 74.8442 68.4657 74.916 68.5021 74.9878C68.5929 75.1271 68.7337 75.2243 68.8882 75.2876C69.0517 75.3552 69.2334 75.3637 69.4105 75.3299C69.4696 75.3257 69.5286 75.3088 69.5831 75.2876C69.8511 75.2074 69.7966 75.1821 69.4196 75.2158C69.3378 75.1398 69.2561 75.0638 69.1743 74.9878C69.1834 75.0004 69.197 75.0173 69.2061 75.03C69.1743 74.9244 69.1425 74.8188 69.1153 74.709C69.1153 74.7259 69.1153 74.747 69.1107 74.7639C69.0698 75.5791 70.4325 75.5791 70.4734 74.7639C70.4915 74.4176 70.2372 74.1262 69.8874 74.0248C69.7239 73.9783 69.5422 73.9741 69.3742 74.0121C69.3151 74.0248 69.0835 74.067 69.1516 74.0755C69.2652 74.105 69.3787 74.1346 69.4968 74.1599C69.4741 74.1473 69.4559 74.1304 69.4332 74.1177C69.515 74.1937 69.5967 74.2698 69.6785 74.3458C69.6467 74.2867 69.574 74.0628 69.4605 73.953C69.2788 73.784 68.9472 73.708 68.7019 73.7714C68.5021 73.8221 68.3295 73.9319 68.1932 74.0713C68.1205 74.1473 68.0569 74.2317 68.0024 74.3204C67.9843 74.35 67.9706 74.3796 67.9525 74.4049C67.8253 74.5654 67.9207 74.5612 68.2386 74.388C68.3976 74.6499 68.5566 74.9075 68.7156 75.1694C68.8109 74.8104 68.9063 74.4514 68.9972 74.0924C69.197 73.3026 67.8843 72.9647 67.6754 73.7587Z" fill="#727272"/>
<path d="M66.231 81.378C66.3309 81.4498 66.4308 81.5216 66.5308 81.5934C66.8215 81.8046 67.2938 81.6356 67.4619 81.3653C67.6663 81.0401 67.5119 80.7064 67.2166 80.4995C67.1167 80.4277 67.0168 80.3559 66.9168 80.2841C66.6261 80.0729 66.1538 80.2419 65.9857 80.5122C65.7813 80.8374 65.9403 81.1668 66.231 81.378Z" fill="#727272"/>
</g>
<g clip-path="url(#clip1_58257_301)">
<path d="M35.7576 41.9121C36.324 37.5726 33.049 34.3326 29.5592 31.8338C27.5266 30.3763 25.5396 29.1602 24.215 27.0738C23.539 26.0035 22.8903 24.7958 22.5112 23.6089C21.7713 21.2975 23.0502 17.6661 26.2156 20.3314C28.0382 21.8681 28.4584 23.8504 29.8516 25.5579C30.6372 26.524 31.8431 27.0405 33.0992 26.4241C36.8767 24.575 33.9534 18.1616 33.1083 15.6129C32.0852 12.527 31.5462 9.55768 33.2682 6.58836C33.8346 5.61386 34.4695 4.6102 35.1958 3.73148C35.6663 3.1651 36.2646 2.55291 36.9361 2.16145C38.3247 1.3452 39.1606 1.3452 40.6953 1.77831C42.3306 2.24057 42.3443 2.3197 42.6777 3.7523C42.833 4.41447 42.897 5.14326 42.9335 5.82625C43.0112 7.27135 42.8833 8.72894 42.559 10.149C41.9515 12.8435 40.202 15.2256 39.8183 17.9617C39.5351 19.9732 39.7316 26.3658 43.3675 25.7661C47.6292 25.0623 47.3231 18.8238 51.5711 17.9909C55.1065 17.2954 56.8331 20.8394 55.3349 23.2715C54.5219 24.5959 53.1698 25.6203 51.868 26.524C49.5476 28.1357 46.711 28.977 44.4317 30.6053C40.3071 33.5621 41.6774 38.2098 43.372 42.0203C43.7009 42.7575 45.0255 42.4326 44.6921 41.6872C43.5502 39.1176 42.1159 35.9734 43.6598 33.2748C45.0895 30.7761 48.8624 29.9015 51.297 28.4272C54.5858 26.4366 59.3043 22.6885 56.5179 18.7447C54.1884 15.4422 49.6755 16.5458 47.5469 19.3111C46.9029 20.1481 46.405 21.0685 45.834 21.9472C45.5737 22.347 45.3133 22.751 45.0073 23.1258C44.788 23.3673 44.5688 23.6047 44.3495 23.8462C42.6184 24.1961 41.7231 23.7754 41.6637 22.5761C39.928 19.2111 42.0291 15.7629 43.2076 12.6603C44.0846 10.3531 44.4591 7.89603 44.2719 5.45977C44.144 3.77313 43.9521 1.49096 42.2118 0.483135C40.6816 -0.403914 38.3293 0.104161 36.8265 0.795476C34.5883 1.82828 33.218 4.01884 32.0852 5.96784C29.1755 10.9736 32.1126 15.3839 33.1951 20.4272C33.3367 21.0976 33.6976 22.5677 33.4555 23.3132C32.7155 23.9295 31.9756 24.5417 31.231 25.1581C30.8062 24.6625 30.4865 24.1211 30.2627 23.5256C29.8333 22.6552 29.3811 21.8431 28.7553 21.0685C27.7687 19.8441 25.905 17.8326 24.0003 17.9326C22.1504 18.0325 21.0633 19.815 20.8668 21.3017C20.5745 23.5006 21.8672 25.8452 23.0365 27.7109C26.2796 32.8792 35.3191 34.7823 34.3873 41.9204C34.2868 42.7075 35.6571 42.7033 35.7576 41.9121Z" fill="#46A358"/>
<path d="M47.5972 21.1475C48.5838 16.5873 46.7202 12.4186 46.3319 7.91673C46.099 5.22643 47.3551 0.924455 51.3473 2.14883C54.3209 3.06087 55.4491 6.29256 55.2481 8.87874C55.102 10.7694 54.1062 16.3166 58.0984 15.8002C61.5242 15.3588 63.2919 10.1531 64.9546 7.94588C66.3797 6.05518 69.5268 3.29408 72.2949 4.06452C76.6799 5.28474 73.8708 10.0823 71.8518 11.9688C68.4489 15.1464 64.8221 17.9575 61.8211 21.4973C60.0808 23.5504 58.5734 26.9237 62.4332 27.8441C63.9177 28.1981 65.3474 27.7275 66.6857 27.1694C67.7637 26.7197 68.7914 26.1824 69.9379 25.8867C72.03 25.3454 74.4554 25.7701 73.0714 28.1398C69.8329 33.6911 62.4195 29.5974 57.6371 31.9253C53.5809 33.9035 52.6354 38.2763 53.0191 42.1118C53.0967 42.9073 54.4716 42.9156 54.3894 42.1118C54.1199 39.4382 54.3529 36.548 56.3809 34.4282C59.0028 31.688 62.5017 32.6875 65.9732 32.625C69.5177 32.5625 74.0809 30.9966 74.8163 27.386C75.6202 23.4297 70.6779 24.1959 68.1428 25.1496C67.0237 25.5702 65.9777 26.2241 64.8084 26.5323C63.8811 26.778 62.4149 26.9112 61.6841 26.1158C60.9761 25.3412 61.547 24.0377 61.9855 23.3797C63.5888 20.9643 66.0462 18.7612 68.2296 16.7747C71.2397 14.0344 76.3739 11.1276 75.9308 6.65904C75.5928 3.23994 72.1305 1.98641 68.9376 3.26909C67.0192 4.03954 65.4342 5.26391 64.1826 6.7923C62.5474 8.78712 61.6749 11.5274 59.7245 13.2848C59.0211 13.9178 58.3314 15.263 56.7601 13.9428C56.0612 13.3556 56.2713 11.7898 56.3444 10.986C56.4403 9.93237 56.687 8.90373 56.6504 7.84177C56.591 6.04685 55.9379 4.22694 54.6635 2.83598C51.9685 -0.0958592 47.3414 0.0332417 45.5509 3.71054C44.482 5.90942 44.9525 8.4248 45.4001 10.707C46.0579 14.0761 47.0217 17.3827 46.2771 20.8143C46.1081 21.6014 47.4282 21.9388 47.5972 21.1475Z" fill="#46A358"/>
<path d="M47.2912 29.0477C46.6471 33.3414 45.592 37.5476 44.1212 41.6705C43.8471 42.4368 45.1717 42.7658 45.4412 42.0037C46.912 37.8808 47.9672 33.6746 48.6112 29.3809C48.73 28.5896 47.4099 28.2523 47.2912 29.0477Z" fill="#46A358"/>
<path d="M30.9021 41.1958C30.724 37.8891 28.2072 35.657 25.3112 33.9578C23.4339 32.8542 21.3784 31.9338 19.766 30.4971C19.0717 29.8807 17.779 28.6855 17.7105 27.7277C17.4776 24.5334 21.7575 27.0197 22.7076 27.7568C23.3745 28.2774 24.3474 27.3945 23.676 26.8739C22.1823 25.712 19.5011 24.2003 17.4502 25.0748C15.7967 25.7786 16.0707 27.5236 16.7056 28.7813C19.3778 34.1244 29.1801 34.7366 29.5318 41.1958C29.5729 41.9954 30.9478 41.9996 30.9021 41.1958Z" fill="#46A358"/>
<path d="M61.6292 42.4327C63.3376 40.0838 65.5894 38.164 68.3483 36.873C70.8606 35.6986 73.9758 35.4945 76.2003 33.8329C78.7536 31.9255 78.8861 27.2487 74.6609 27.3695C73.7794 27.3945 73.7794 28.6438 74.6609 28.6188C76.3282 28.8271 77.0042 29.6683 76.6981 31.1384C76.3556 31.9838 75.7755 32.6501 74.9578 33.1332C73.9575 33.7787 72.7425 34.0744 71.5914 34.4076C70.1252 34.8324 68.6955 35.278 67.3389 35.9443C64.516 37.3352 62.2093 39.3759 60.4416 41.8038C59.9529 42.4743 61.1405 43.099 61.6292 42.4327Z" fill="#46A358"/>
<path d="M65.3519 31.4423C59.5463 32.4418 57.4041 37.71 56.0292 42.3201C55.7962 43.0989 57.1209 43.4279 57.3493 42.6533C58.6008 38.4596 60.4051 33.5621 65.7173 32.6501C66.5806 32.496 66.2152 31.2924 65.3519 31.4423Z" fill="#46A358"/>
<path d="M34.739 12.4271C34.0584 9.93253 34.908 7.20059 37.1097 5.52644C37.5527 5.17245 38.0552 4.90175 38.6079 4.71435C40.1289 5.01003 40.8369 5.75132 40.7319 6.93822C40.7593 7.62953 40.6131 8.31252 40.435 8.97885C40.0741 10.324 39.4392 11.6025 38.9687 12.9185C37.7583 16.3085 36.018 21.8515 39.2885 24.7375C39.6036 25.0165 40.0924 24.5751 39.7726 24.2961C36.9041 21.7682 38.3749 16.9081 39.357 13.8805C40.2066 11.2569 42.5133 7.77113 40.9557 5.0142C39.7407 2.86529 36.9544 4.61024 35.7713 5.86793C34.0219 7.72948 33.4326 10.2324 34.0767 12.5937C34.1863 12.9851 34.8441 12.8186 34.739 12.4271Z" fill="#46A358"/>
<path d="M49.2187 22.5427C49.6115 21.7473 50.4063 20.6228 51.4706 20.4896C53.0921 20.2855 53.928 22.1429 53.0602 23.3714C52.2426 24.5292 50.685 25.3371 49.342 25.8327C47.1084 26.6531 45.6102 27.7859 43.9887 29.4059C43.6918 29.7016 44.1759 30.1472 44.4728 29.8473C45.4549 28.8603 46.4598 27.8358 47.7388 27.1529C48.7574 26.6073 49.9404 26.3949 50.9636 25.8618C52.2106 25.208 54.2295 23.7962 54.3757 22.372C54.4944 21.2225 53.1652 19.8899 51.9228 19.8191C50.4246 19.7316 49.173 21.1309 48.6295 22.2304C48.4468 22.5885 49.0406 22.9092 49.2187 22.5427Z" fill="#46A358"/>
<path d="M23.6029 23.2675C23.7536 22.1722 24.2058 21.7683 24.9549 22.064C25.2198 22.0681 25.4391 22.1556 25.6218 22.3263C25.9827 22.5429 26.2202 22.8635 26.4349 23.2009C26.8185 23.8047 26.9967 24.5085 27.2799 25.1499C27.6407 25.9745 28.1158 26.645 28.9334 27.1364C29.3034 27.3613 29.646 26.8199 29.2806 26.595C27.2708 25.3789 27.8326 22.2222 25.3203 21.4559C23.813 20.9978 22.2965 22.1889 23.0136 23.5798C23.2009 23.9463 23.7901 23.6298 23.6029 23.2675Z" fill="#46A358"/>
<path d="M48.1499 7.10482C47.7936 5.30573 49.8719 3.87313 51.4615 5.18496C52.3385 5.90959 52.6765 7.24225 52.6811 8.28338C52.6902 9.69516 51.9822 10.957 52.2837 12.373C52.3659 12.7686 53.0282 12.602 52.946 12.2064C52.5669 10.4281 53.654 8.72483 53.1653 6.87993C52.8729 5.77633 52.2791 4.54778 51.0276 4.13133C48.7711 3.38588 47.113 5.37653 47.4876 7.26723C47.5698 7.66287 48.2275 7.49628 48.1499 7.10482Z" fill="#46A358"/>
<path d="M47.8073 11.2236C48.9218 13.36 49.4699 15.234 49.3877 17.6036C49.374 18.0076 50.0592 18.0034 50.0729 17.6036C50.1597 15.1132 49.5659 13.1434 48.4011 10.9112C48.2092 10.5489 47.62 10.8654 47.8073 11.2236Z" fill="#46A358"/>
<path d="M65.5757 9.43703C66.238 8.05857 67.4896 7.18818 68.9376 6.53434C69.3532 6.33445 69.7826 6.17203 70.2302 6.04293C72.1624 6.64262 72.6511 7.47137 71.6965 8.53749C71.2397 9.19132 70.5774 9.77853 70.0064 10.3532C67.8322 12.5396 65.4844 14.5636 63.0041 16.4543C62.6661 16.7125 63.1503 17.1539 63.4883 16.8957C65.731 15.1883 67.8641 13.3725 69.8557 11.4235C71.0524 10.2533 73.35 8.51667 72.8475 6.66761C71.8472 3.00281 65.8224 7.37142 64.9819 9.12469C64.8083 9.48701 65.4021 9.80351 65.5757 9.43703Z" fill="#46A358"/>
<path d="M61.7069 18.7237C59.5189 20.1896 58.1897 22.3261 57.9385 24.7873C57.8974 25.1871 58.5825 25.1829 58.6236 24.7873C58.852 22.5634 60.0762 20.5853 62.054 19.2609C62.4057 19.0277 62.0631 18.4822 61.7069 18.7237Z" fill="#46A358"/>
<path d="M66.0416 29.1436C66.4893 28.8979 66.9369 28.6397 67.4074 28.4273C67.7637 28.2482 68.1382 28.1108 68.531 28.015C69.2664 27.736 69.5131 28.2565 69.2664 29.5767C68.7823 30.4471 66.1604 30.4804 65.3473 30.4346C63.3147 30.3263 61.4008 29.8182 59.3956 30.3805C58.9754 30.4971 59.1535 31.1009 59.5783 30.9843C61.9855 30.3055 64.3287 31.2925 66.7588 31.0468C68.0788 30.9094 69.947 30.3555 70.6048 29.1894C70.9702 28.5397 70.8834 27.6818 70.0841 27.3278C68.7731 26.749 66.7268 28.0317 65.6945 28.6022C65.3199 28.8146 65.6625 29.356 66.0416 29.1436Z" fill="#46A358"/>
<path d="M55.8556 31.4674C52.2928 34.1036 50.9956 38.1015 50.6347 42.1328C50.5982 42.5326 51.2833 42.5326 51.3199 42.1328C51.667 38.2556 52.914 34.4409 56.3398 31.9088C56.6824 31.6548 56.1936 31.2175 55.8556 31.4674Z" fill="#46A358"/>
<path d="M40.5217 32.5293C39.462 34.2034 39.494 36.0275 39.727 37.9016C39.9234 39.4758 40.1472 41.0208 41.3394 42.2452C41.6317 42.545 42.1159 42.1036 41.8236 41.8037C40.6542 40.6043 40.508 38.9385 40.3527 37.406C40.1883 35.8109 40.2111 34.2659 41.1156 32.8416C41.3348 32.496 40.7456 32.1836 40.5217 32.5293Z" fill="#46A358"/>
<path d="M21.6205 28.4148C19.6381 28.4398 20.4238 30.343 21.4835 31.026C22.8081 31.8797 24.3155 32.4503 25.7224 33.1707C27.3804 34.0203 28.0473 35.4529 29.3217 36.6481C29.6278 36.9355 30.1119 36.494 29.8059 36.2067C28.5406 35.0198 27.9286 33.5997 26.2979 32.7501C25.4757 32.3212 24.6124 31.9588 23.7856 31.5466C23.3563 31.3342 22.9269 31.1218 22.5158 30.8844C22.3514 30.7928 22.1824 30.697 22.0179 30.6054C21.2003 30.3222 21.0724 29.8016 21.6251 29.0437C22.059 29.0353 22.059 28.4107 21.6205 28.4148Z" fill="#46A358"/>
<path d="M73.1764 31.2926C73.1993 32.1255 72.779 32.5794 71.9066 32.6586C71.4864 32.8127 71.0707 32.9626 70.6505 33.1167C70.0247 33.3457 69.3943 33.5748 68.7686 33.8038C67.3069 34.3369 65.8406 34.8741 64.379 35.4072C63.9724 35.5529 64.1506 36.1609 64.5617 36.011C66.2335 35.3988 67.9053 34.7908 69.5771 34.1786C70.8149 33.7247 72.3953 33.3999 73.4962 32.6919C74.4508 32.0755 74.4782 30.797 73.1719 30.6679C72.7379 30.6221 72.7425 31.2509 73.1764 31.2926Z" fill="#46A358"/>
<path d="M62.8077 36.2733C60.9715 37.8558 59.5235 39.7132 58.5003 41.8205C58.3222 42.1828 58.9114 42.5035 59.0941 42.137C60.0945 40.0797 61.4967 38.2639 63.2964 36.7189C63.6116 36.4399 63.1274 35.9984 62.8077 36.2733Z" fill="#46A358"/>
<path d="M30.9478 39.0053C31.4731 39.7132 31.8111 40.4754 31.971 41.3166C32.0441 41.7122 32.7064 41.5456 32.6333 41.15C32.4643 40.263 32.0943 39.4342 31.5416 38.6888C31.295 38.3598 30.7012 38.6721 30.9478 39.0053Z" fill="#46A358"/>
</g>
<defs>
<clipPath id="clip0_58257_301">
<rect width="55.7143" height="44.9684" fill="white" transform="translate(19.2468 42.158)"/>
</clipPath>
<clipPath id="clip1_58257_301">
<rect width="61.7922" height="43.0947" fill="white" transform="translate(16.2078)"/>
</clipPath>
</defs>
</svg>
