<svg width="22" height="20" viewBox="0 0 22 20" fill="none" xmlns="http://www.w3.org/2000/svg">
  <path d="M2.97993 6.22257C2.05682 7.31382 1.35242 8.59601 0.934356 10.0015C2.22565 14.338 6.24311 17.5 10.9991 17.5C11.9917 17.5 12.9521 17.3623 13.8622 17.1049M5.22763 4.22763C6.88388 3.13558 8.86771 2.5 11 2.5C15.756 2.5 19.7734 5.66205 21.0647 9.99852C20.3528 12.3919 18.8106 14.4277 16.772 15.772M5.22763 4.22763L2 1M5.22763 4.22763L8.87868 7.87868M16.772 15.772L20 19M16.772 15.772L13.1213 12.1213M13.1213 12.1213C13.6642 11.5784 14 10.8284 14 10C14 8.34315 12.6569 7 11 7C10.1716 7 9.42157 7.33579 8.87868 7.87868M13.1213 12.1213L8.87868 7.87868" stroke="#262626" stroke-width="1.5" stroke-linecap="round" stroke-linejoin="round" />
</svg>