<svg width="22" height="18" viewBox="0 0 22 18" fill="none" xmlns="http://www.w3.org/2000/svg">
  <path d="M1.03555 9.3224C0.966469 9.11513 0.966403 8.89073 1.03536 8.68343C2.42373 4.50972 6.36079 1.5 11.0008 1.5C15.6387 1.5 19.5742 4.50692 20.9643 8.6776C21.0334 8.88487 21.0335 9.10927 20.9645 9.31658C19.5761 13.4903 15.6391 16.5 10.9991 16.5C6.3612 16.5 2.42564 13.4931 1.03555 9.3224Z" stroke="#262626" stroke-width="1.5" stroke-linecap="round" stroke-linejoin="round" />
  <path d="M14 9C14 10.6569 12.6569 12 11 12C9.34315 12 8 10.6569 8 9C8 7.34315 9.34315 6 11 6C12.6569 6 14 7.34315 14 9Z" stroke="#262626" stroke-width="1.5" stroke-linecap="round" stroke-linejoin="round" />
</svg>